PathFileType	4	(X/Y/Z)	15_2_67_p1_0-284.trc
DataRate	CameraRate	NumFrames	NumMarkers	Units	OrigDataRate	OrigDataStartFrame	OrigNumFrames
59.0	59.0	6	27	m	59.0	249	285
Frame#	Time	RHip			RKnee			RAnkle			RBigToe			RSmallToe			RHeel			LHip			LKnee			LAnkle			LBigToe			LSmallToe			LHeel			Neck			Head			Nose			RShoulder			RElbow			RWrist			RThumb			RIndex			RPinky			LShoulder			LElbow			LWrist			LThumb			LIndex			LPinky			
		X1	Y1	Z1	X2	Y2	Z2	X3	Y3	Z3	X4	Y4	Z4	X5	Y5	Z5	X6	Y6	Z6	X7	Y7	Z7	X8	Y8	Z8	X9	Y9	Z9	X10	Y10	Z10	X11	Y11	Z11	X12	Y12	Z12	X13	Y13	Z13	X14	Y14	Z14	X15	Y15	Z15	X16	Y16	Z16	X17	Y17	Z17	X18	Y18	Z18	X19	Y19	Z19	X20	Y20	Z20	X21	Y21	Z21	X22	Y22	Z22	X23	Y23	Z23	X24	Y24	Z24	X25	Y25	Z25	X26	Y26	Z26	X27	Y27	Z27	
249	4.220338983050848	0.24205329090072744	0.3294260639595779	1.082317066245735	0.220012886799166	0.2620746063525964	1.5098020741928926	0.24069513823587885	0.2025220852377407	1.949430466333349	0.2333764830429134	-0.010651927827058176	1.8659310629161143	0.2905289635469503	0.044878026037584354	1.903278668990533	0.23898149910569907	0.24992835173171044	2.0312613421199663	0.03665444713061044	0.312670144205759	1.0805324943902572	0.0675046824917812	0.2877864440864406	1.5305511664903835	0.07214209671377676	0.2124012635946109	1.9700762322312348	0.08740259798291228	0.0208958123978648	1.8952341736792293	0.046340604190213866	0.0579227128546738	1.9136572951030533	0.0877087912163489	0.22250412752111223	2.0202973333503165	0.1266122465605978	0.41978631006803063	0.5136371990631408	0.09994907024576759	0.4291268465209945	0.2659688182675086	0.11957560982485423	0.31971613904876495	0.3785510862435392	0.2754480797364511	0.4225341594269254	0.6096846967758522	0.33415765746906345	0.4005534700455829	0.8997503706044453	0.34149664881771846	0.2270440748387102	1.0850536869519776	0.2695760806711989	0.19183488026214549	1.1911342100538629	0.2938506328555587	0.2187951204586212	1.24181467371722	0.322059867183359	0.2446260186818832	1.2560046536918268	-0.04159174915668401	0.40430683162489983	0.6199429299316873	-0.06278521801922131	0.3223747900848974	0.8706121546069073	-0.025108692761199668	0.22382460457552392	1.1063558689649218	0.028542594772794187	0.1842234718958773	1.1729383551517767	0.026030904245289015	0.16809415444751874	1.1898957720104109	-0.027259601715631545	0.23107814278014918	1.237452487208207
250	4.237288135593221	0.23786248811101274	0.3190318891478827	1.076877634224842	0.22324935962791936	0.24928062589482258	1.5002360042238925	0.2375988440609209	0.21624722635106103	1.9622868037128915	0.2374333116208488	-0.0014969584115090138	1.8744942989101354	0.29509938670079827	0.04593676601366094	1.9038671445277358	0.24233106332602408	0.2613123549706279	2.035919430984867	0.037515604751631876	0.312344356769712	1.084978093347872	0.06745310163968196	0.28772836733828894	1.5304959809687264	0.07612750143331332	0.22309664622016534	1.979460477074979	0.08745717085052745	0.0211574205799649	1.8950935162506946	0.04918565842576322	0.04657975983917521	1.8967056306777543	0.08636921145048769	0.22223354418743949	2.015077896677995	0.12660656571150405	0.4196703090503748	0.5139204574333406	0.10037989705779607	0.42827496245190677	0.27263915251357923	0.11955379946453255	0.31993728381005826	0.37881354740592077	0.2757833511639682	0.42176923004167816	0.6128979780955126	0.3341333526063701	0.4006621192927841	0.8998699280565978	0.3371500670930716	0.21684272662172	1.0799077143959637	0.26554461132190627	0.18219177505996242	1.1852694639063108	0.2934637186883345	0.21813124698834346	1.2408136487292292	0.3215233359121785	0.24316021295211054	1.2599052980010697	-0.041618919681044975	0.40414947160373715	0.6201269589211846	-0.06237163800144937	0.3229003157998976	0.8709403341035088	-0.025013815622458885	0.2234325556148953	1.1060550983234416	0.028702538249948104	0.18373570334269745	1.1736915089357913	0.026072853518182136	0.16787561296223283	1.1899049826187293	-0.027390529521770502	0.23096686065886646	1.2371083429154472
251	4.254237288135593	0.24163939329986323	0.3061226941237402	1.0735866645260101	0.22186690490908378	0.263084955277998	1.5110518812586222	0.24072697220477665	0.20249523114461046	1.949106227385517	0.23334678887112206	-0.011007619585416056	1.8657799353677746	0.29508153682696736	0.04575606816417169	1.9036641499212412	0.2437016791642889	0.2613446104853652	2.041277804641381	0.0422416576865504	0.30016597003740003	1.0826240367565068	0.06757491496000552	0.2879209694427785	1.5305528758103275	0.08002264252243639	0.2104326758292321	1.9673916957207673	0.08747318762960758	0.02095753231503399	1.8950146416043967	0.04917532570617053	0.046453222630931566	1.8966990716613097	0.09060044752427368	0.23275882225618977	2.0246107717186983	0.12691897606506522	0.41887133973915447	0.5179106516466936	0.10023384787077518	0.42775821354474214	0.27272149329481865	0.119416224083968	0.31951704385714785	0.3789535742011272	0.27578698906242977	0.4218449730861505	0.613045012032065	0.3339669901191904	0.4002489118641388	0.8996808509684181	0.3367669411055284	0.21503157858900307	1.0827685571930448	0.26331883953397606	0.17335856538315875	1.1874878429337818	0.29139882227187003	0.1964452217447931	1.227792362393028	0.32165516791158916	0.2423694368099161	1.2600967298139594	-0.041650609048220745	0.40410004594026805	0.6203465886220154	-0.062274718845364105	0.3227686983078655	0.8709612951513618	-0.020674168683116494	0.2117994540945387	1.0991511826852807	0.03275415192159792	0.16422791440151974	1.1659563405342772	0.026488791129505366	0.16589936657101867	1.1928394941631781	-0.023712165355170203	0.2321718452520363	1.2376824469838283
252	4.271186440677966	0.24584683714136077	0.31644605173296503	1.0791671229966013	0.22129197795175343	0.26209475018530476	1.515162565047319	0.24076719383245632	0.2024503108872785	1.9489402144639376	0.23247300513735147	-0.012235557721974068	1.8698331208328547	0.29507014673210835	0.04548801031701903	1.903512235644583	0.24169552590696747	0.2625519471759529	2.0319777524003055	0.038908138011908275	0.31246727868747504	1.094580746998468	0.06819984665305542	0.28918984948706067	1.52668447861499	0.07611892616620744	0.22320385687115724	1.979282189380391	0.0958881565223177	0.032671402929763484	1.9055682253822117	0.04535688528077004	0.05837911904339125	1.9081256281041112	0.09006680169325079	0.23449325637698062	2.0204786761561992	0.12418873739154467	0.4294965138869139	0.5255864370333156	0.09630309184119977	0.4256652647200357	0.27626486828763824	0.1229369529343339	0.30813390767772386	0.3788088692135434	0.27669103784076643	0.42157605647843466	0.616399899254055	0.33491455922387603	0.4002641523098682	0.903837174056846	0.33810006628263345	0.21310909381801338	1.0907416552685307	0.26451462999646963	0.17178699473165135	1.1951349784845158	0.29214864658660755	0.19487864426425877	1.2326905461554443	0.32167501321635217	0.24160511882922417	1.2607277858160164	-0.04162946123599538	0.40437714766274213	0.6204604677993729	-0.06213393544993632	0.32259136944218847	0.870991071036041	-0.016684778281811863	0.21192622258519742	1.1028460198694192	0.03314084062389039	0.16320078536753577	1.1691133378280758	0.02330462731791197	0.1563483749474954	1.1872092402840737	-0.023431917703562385	0.23154215131677675	1.237956182268558
253	4.288135593220339	0.24241294524952614	0.3055523584627449	1.0777181366784516	0.22505684113815788	0.2500642410374488	1.5014166231253225	0.24072275013961913	0.20256350452150074	1.949052692745619	0.23333382684099968	-0.010999088619392201	1.8655747763280837	0.29512261952868996	0.045742634693412075	1.9034581221356122	0.24167390445259965	0.26281286070244536	2.0317817726181753	0.03900475548555057	0.3123527013410989	1.0950853123536373	0.06821024695232838	0.2892638634524588	1.5266398407967674	0.07609957169316403	0.22312842590333204	1.9794923145126038	0.09243337319490595	0.022567218458062626	1.8964522116770446	0.049203647954067835	0.046543777068269815	1.8969581933910902	0.09044742774023462	0.23262854194285665	2.0247558508774928	0.12729566521523056	0.41819105869453455	0.5217961096426478	0.0927427628336233	0.41590973821168853	0.2743834847018645	0.1186636111188841	0.3062657036561302	0.3787512793348549	0.27668859374567256	0.42135631088799186	0.6163055766302586	0.3295638346297159	0.389854965480964	0.8954087898125452	0.331718140848023	0.2105864427618574	1.093024103970405	0.2598875189248494	0.16037148635218898	1.1932223621397313	0.2831243110027892	0.17418173781593416	1.2206244512050741	0.3208238606040013	0.2282471390635132	1.2563726178837835	-0.03833229487108113	0.4143667826643654	0.6237667812822	-0.062083802713936966	0.3226746038674172	0.8709387104346604	-0.008204267437308002	0.1892646514725445	1.0891565142029913	0.03314846533370148	0.16270255090628105	1.1692632342969653	0.02294647673390866	0.15536954301689357	1.1901639113167075	-0.019308180444945637	0.23217944585514497	1.2382888520034192
254	4.305084745762712	0.23500183715333361	0.30638973019161175	1.0829724340664555	0.22079407467748616	0.2633541258118691	1.5111152252628075	0.2407401543913305	0.20245272695469024	1.9490265134507923	0.2333816920016118	-0.011134450316930332	1.865158641293305	0.29067417782735916	0.03597090107929019	1.894389098824974	0.24171086330024324	0.26264527414766536	2.032206032941573	0.04000305827950976	0.31191578420802274	1.09968011862724	0.0637902008883261	0.2879491148011563	1.5256390307588013	0.07613443529181213	0.22317613152974505	1.9795232276495531	0.0924360983940193	0.022674781932001616	1.8963440153806175	0.0453201862083077	0.058139711754501854	1.9080800892856504	0.08582509719689212	0.22396878364057002	2.0112008903262315	0.12416217457653884	0.42965774379762817	0.525987226832841	0.09255145856616794	0.4159521194844498	0.27460911437269037	0.11265114466010519	0.30677433769401286	0.3857981908024734	0.2767072992119703	0.4214951990627307	0.6164719897408848	0.33018750959484106	0.3891175384382849	0.8990994207710958	0.3257671907880953	0.21206058749370743	1.0993486523740519	0.2584386367887588	0.14569943415054423	1.1886573976604942	0.28085350251318125	0.1507481707673445	1.2102228347142332	0.3124797755394136	0.2163825762132491	1.2536334425028657	-0.03441576456467905	0.4172479541117983	0.624522152114061	-0.05825618241509384	0.3247305572463531	0.8714899981294599	-0.008428359631299391	0.19037561540534256	1.0858887025912343	0.028977636866028555	0.17433511704992227	1.1725694542518008	0.02299775233496805	0.15661478950485383	1.1872900433318336	-0.023086820093923495	0.23019508013563245	1.2373529453642036
